<svg width="100" height="100" viewBox="0 0 100 100" fill="none" xmlns="http://www.w3.org/2000/svg">
<path d="M50 0C30 0 10 20 10 40C10 60 30 100 50 100C70 100 90 60 90 40C90 20 70 0 50 0ZM50 10C65 10 80 25 80 40C80 55 65 90 50 90C35 90 20 55 20 40C20 25 35 10 50 10ZM50 20C40 20 30 30 30 40C30 50 40 80 50 80C60 80 70 50 70 40C70 30 60 20 50 20Z" fill="#4CAF50"/>
<path d="M50 20C45 20 40 25 40 30C40 35 45 40 50 40C55 40 60 35 60 30C60 25 55 20 50 20Z" fill="#8BC34A"/>
<path d="M50 20C48 20 46 21 45 22.5C44 24 44 26 45 27.5C46 29 48 30 50 30C52 30 54 29 55 27.5C56 26 56 24 55 22.5C54 21 52 20 50 20Z" fill="#689F38"/>
</svg>